:SAMPLES-PER-SECOND 30
:FULLY-SPECIFIED
:DEGREES
29
root  77.1035 38.4938 -1.43481 -12.9659 -81.6666 8.50226
RightUpLeg  0.615144 -10.3684 -3.53631
RightLeg  18.2186 0.768768 0.691163
RightFoot  -14.9186 -0.128836 -0.893049
RightToes  -4.65661e-009 0 -3.6325e-017
Spine  7.39954 -0.020713 11.8021
Spine1  2.40578 2.12769 -5.65104
HEad  -4.65693 -7.06524 -3.26885
LeftShoulder1  -0.261808 4.18018 -32.5651
LeftArm  1.84598 14.4487 -40.7463
LeftForeArm  25.4039 -17.319 -5.57192
LeftHand  -0.0743159 8.98056 -0.880441
RightShoulder  -1.01021 -6.2175 30.6573
RightArm  20.3639 0.30478 45.5771
RightForeArm  11.6014 13.466 7.01377
RightHand  -0.203283 4.32738 -2.67705
LeftUpLeg  -17.2904 1.24215 2.68735
LeftLeg  33.6851 -0.603969 -0.0874514
LeftFoot  -3.63923 0.471891 -6.67676
LeftToes  9.86798e-010 -1.28139e-010 1.4132e-011
30
root  76.7512 38.6158 -1.46224 -19.607 -82.8677 15.488
RightUpLeg  1.26932 -10.0319 -4.07343
RightLeg  16.9904 1.85943 0.64202
RightFoot  -14.6506 -0.125256 -0.906412
RightToes  -4.65661e-009 0 -3.6325e-017
Spine  7.34297 0.734048 11.3158
Spine1  2.47445 2.89784 -6.33434
HEad  -5.14406 -6.09607 -3.68536
LeftShoulder1  -0.307037 4.29036 -32.9059
LeftArm  0.50652 15.311 -40.2063
LeftForeArm  26.2717 -16.2542 -5.93685
LeftHand  -0.0883976 11.1454 -0.502402
RightShoulder  -0.943495 -6.0694 30.2009
RightArm  21.9847 0.0419828 45.7734
RightForeArm  9.70972 15.9266 6.16319
RightHand  -0.115044 3.41306 -1.74631
LeftUpLeg  -17.2249 3.46481 1.74894
LeftLeg  29.013 -1.16317 -0.367813
LeftFoot  -3.76675 0.475591 -6.83913
LeftToes  9.86798e-010 -1.28139e-010 1.4132e-011
31
root  76.4049 38.6884 -1.432 -21.3464 -82.1205 17.649
RightUpLeg  2.05878 -10.4125 -4.75308
RightLeg  15.8942 1.66142 0.757321
RightFoot  -14.5565 -0.127074 -1.01771
RightToes  -4.65661e-009 0 -3.6325e-017
Spine  7.05297 0.542164 10.9551
Spine1  2.59728 2.66843 -6.87455
HEad  -5.26238 -6.14753 -3.86158
LeftShoulder1  -0.271926 4.20533 -32.6334
LeftArm  -0.623558 16.0459 -40.2389
LeftForeArm  27.8677 -15.162 -6.29936
LeftHand  -0.0786285 10.3971 -0.468353
RightShoulder  -1.00646 -6.22183 30.457
RightArm  23.6171 0.492655 45.6176
RightForeArm  6.44705 17.9442 5.59615
RightHand  -0.207991 4.50222 -2.73213
LeftUpLeg  -17.6406 3.20387 0.806619
LeftLeg  24.0462 -1.27542 -0.307243
LeftFoot  -3.54945 0.475254 -6.65837
LeftToes  9.86798e-010 -1.28139e-010 1.4132e-011
32
root  76.0461 38.7867 -1.40022 -24.5527 -82.2585 21.4242
RightUpLeg  2.68256 -10.1644 -5.09245
RightLeg  14.498 1.77359 0.550878
RightFoot  -14.3083 -0.117652 -0.805734
RightToes  -4.65661e-009 0 -3.6325e-017
Spine  7.01021 0.714821 10.6283
Spine1  2.55425 2.90609 -7.80629
HEad  -5.0763 -7.27884 -3.82883
LeftShoulder1  -0.279244 4.23526 -32.0417
LeftArm  -1.63474 16.8161 -40.518
LeftForeArm  29.5171 -14.1188 -6.61818
LeftHand  -0.108759 11.3448 -0.886846
RightShoulder  -1.09658 -6.44509 30.7339
RightArm  24.8707 0.873773 45.4049
RightForeArm  5.11485 20.2934 4.94935
RightHand  -0.16464 4.36181 -2.24598
LeftUpLeg  -17.6841 3.83531 0.102663
LeftLeg  18.5023 -0.975383 -0.0319104
LeftFoot  -3.01258 0.50739 -6.72783
LeftToes  9.86798e-010 -1.28139e-010 1.4132e-011
33
root  75.6278 38.8427 -1.32719 -27.032 -82.4975 24.4192
RightUpLeg  3.34528 -10.0333 -5.39879
RightLeg  13.3464 2.03304 0.448367
RightFoot  -14.2317 -0.111734 -0.612744
RightToes  -4.65661e-009 0 -3.6325e-017
Spine  5.91794 0.911502 9.82367
Spine1  3.78588 2.98823 -7.61607
HEad  -5.7531 -7.18122 -3.87139
LeftShoulder1  -0.291071 4.26229 -32.2305
LeftArm  -3.53718 16.9137 -40.5338
LeftForeArm  32.1168 -12.461 -6.93298
LeftHand  -0.0862757 9.15772 -1.07251
RightShoulder  -0.959095 -6.12169 30.0718
RightArm  23.7021 1.39421 46.0729
RightForeArm  5.82452 21.4056 4.67603
RightHand  -0.120315 4.68968 -1.64725
LeftUpLeg  -17.5682 4.15591 -0.392137
LeftLeg  13.1431 -0.824725 -0.00598525
LeftFoot  -1.93401 0.53126 -6.30419
LeftToes  9.86798e-010 -1.28139e-010 1.4132e-011
34
root  75.1735 38.8654 -1.22214 -29.353 -83.0743 27.1665
RightUpLeg  4.07401 -9.99098 -5.65242
RightLeg  12.3051 2.69429 0.51567
RightFoot  -14.3159 -0.11116 -0.552507
RightToes  -4.65661e-009 0 -3.6325e-017
Spine  4.42701 1.01708 9.82648
Spine1  5.78424 3.28801 -8.48478
HEad  -6.33166 -6.3497 -3.1547
LeftShoulder1  -0.257861 4.18568 -31.7023
LeftArm  -4.92954 17.1259 -41.1197
LeftForeArm  33.6515 -11.7063 -6.88135
LeftHand  -0.0929332 8.83734 -1.51812
RightShoulder  -0.919817 -6.01607 30.028
RightArm  23.1441 2.86337 46.8886
RightForeArm  6.80054 21.5048 4.6177
RightHand  -0.00260229 4.10264 -0.324518
LeftUpLeg  -17.3409 3.66274 -0.265361
LeftLeg  8.51819 -0.0846071 -0.249702
LeftFoot  -1.04555 0.578428 -6.35601
LeftToes  9.86798e-010 -1.28139e-010 1.4132e-011
35
root  74.6599 38.8417 -1.08688 -28.6071 -83.4942 26.8507
RightUpLeg  4.87615 -9.92516 -5.63845
RightLeg  11.4291 3.03419 0.540551
RightFoot  -14.6434 -0.107437 -0.29029
RightToes  -4.65661e-009 0 -3.6325e-017
Spine  4.55138 0.864982 9.85352
Spine1  5.15554 3.16701 -8.98931
HEad  -6.67641 -5.46043 -2.97948
LeftShoulder1  -0.276993 4.23902 -31.5708
LeftArm  -4.22461 18.0851 -40.7261
LeftForeArm  33.0788 -11.6266 -7.11167
LeftHand  -0.106204 10.5845 -1.02364
RightShoulder  -0.917492 -6.01074 30.009
RightArm  23.0917 3.1551 47.2705
RightForeArm  6.4637 21.7842 4.61719
RightHand  -0.0927598 3.73014 -1.43165
LeftUpLeg  -17.3982 2.9609 0.0811433
LeftLeg  5.33946 0.325897 -0.441417
LeftFoot  0.0450732 0.585304 -5.86863
LeftToes  9.86798e-010 -1.28139e-010 1.4132e-011
36
root  74.0967 38.786 -0.892793 -28.266 -83.7081 26.9166
RightUpLeg  5.61336 -10.1096 -5.99217
RightLeg  11.0444 3.4765 0.699234
RightFoot  -15.2468 -0.10481 -0.0498344
RightToes  -4.65661e-009 0 -3.6325e-017
Spine  4.6236 1.09409 8.52408
Spine1  4.57148 3.01468 -7.60699
HEad  -6.63152 -5.82551 -3.22687
LeftShoulder1  -0.220789 4.08063 -32.0891
LeftArm  -5.13169 18.5292 -40.3631
LeftForeArm  34.368 -11.013 -7.05426
LeftHand  -0.0980648 8.99807 -1.43391
RightShoulder  -0.971354 -6.15442 30.0668
RightArm  22.6314 3.16756 46.6437
RightForeArm  7.08013 22.0252 4.57001
RightHand  0.0491635 3.93075 0.339898
LeftUpLeg  -18.0383 2.11014 -0.0629194
LeftLeg  4.70383 1.66765 -0.0205972
LeftFoot  0.491205 0.560999 -5.44089
LeftToes  9.86798e-010 -1.28139e-010 1.4132e-011
37
root  73.421 38.6903 -0.683063 -30.2626 -84.5586 29.1172
RightUpLeg  6.61797 -10.0352 -6.18435
RightLeg  10.6755 4.33307 0.605927
RightFoot  -16.0796 -0.0969864 0.284975
RightToes  -4.65661e-009 0 -3.6325e-017
Spine  4.00291 1.15707 8.17599
Spine1  5.09146 3.07089 -7.56714
HEad  -6.90849 -5.22571 -2.87683
LeftShoulder1  -0.333221 4.36595 -32.5355
LeftArm  -4.26517 18.7224 -39.5829
LeftForeArm  33.6383 -11.4288 -7.11694
LeftHand  -0.131345 9.32503 -2.05448
RightShoulder  -0.86436 -5.89921 29.4902
RightArm  22.3225 3.16925 47.5879
RightForeArm  7.01425 21.276 4.6128
RightHand  -0.0643263 3.65036 -1.07612
LeftUpLeg  -18.1353 2.68941 -0.0310013
LeftLeg  5.18773 3.46351 0.00025044
LeftFoot  0.762718 0.456325 -4.34076
LeftToes  9.86798e-010 -1.28139e-010 1.4132e-011
38
root  72.6808 38.5598 -0.41216 -33.4901 -85.3816 32.4384
RightUpLeg  7.80831 -10.1286 -6.66722
RightLeg  10.4407 5.39541 0.585988
RightFoot  -17.0312 -0.0770235 0.767708
RightToes  -4.65661e-009 0 -3.6325e-017
Spine  3.48604 1.33564 8.15598
Spine1  5.66776 3.39945 -8.02033
HEad  -7.92359 -5.67752 -2.75041
LeftShoulder1  -0.353933 4.4222 -32.4084
LeftArm  -3.29848 18.6998 -39.3337
LeftForeArm  32.3655 -11.766 -7.28795
LeftHand  -0.0445619 11.7593 -0.149368
RightShoulder  -0.866968 -5.91055 29.4152
RightArm  21.9379 2.50986 47.6705
RightForeArm  6.97713 21.194 4.61754
RightHand  -0.138457 3.86969 -2.00222
LeftUpLeg  -18.0584 3.76324 -0.211204
LeftLeg  6.81901 4.34926 -0.0712975
LeftFoot  1.33965 0.276356 -2.56736
LeftToes  9.86798e-010 -1.28139e-010 1.4132e-011
39
root  71.8959 38.4335 -0.0942776 -36.7344 -85.5803 35.7214
RightUpLeg  9.26881 -10.1648 -7.42292
RightLeg  10.0521 5.98157 0.32862
RightFoot  -17.9122 -0.0310687 1.56691
RightToes  -4.65661e-009 0 -3.6325e-017
Spine  3.07704 1.33715 7.18691
Spine1  5.85631 3.34511 -7.75928
HEad  -8.51699 -5.15881 -2.72682
LeftShoulder1  -0.368712 4.45407 -32.6637
LeftArm  -2.5355 18.6539 -38.8051
LeftForeArm  29.7235 -12.1583 -7.35923
LeftHand  -0.0788315 18.1261 0.1878
RightShoulder  -0.819383 -5.7986 29.0776
RightArm  22.0527 1.50937 47.586
RightForeArm  6.95458 20.6093 4.70746
RightHand  -0.137193 3.98301 -1.95353
LeftUpLeg  -18.3002 3.91807 -1.00264
LeftLeg  9.2032 4.93169 0.484417
LeftFoot  3.5855 0.0493495 -0.59604
LeftToes  9.86798e-010 -1.28139e-010 1.4132e-011
40
root  71.0576 38.2856 0.248854 -44.7344 -85.5575 43.5525
RightUpLeg  10.7044 -10.1487 -8.67838
RightLeg  10.3372 6.60609 0.00879003
RightFoot  -19.0099 0.0311195 2.38874
RightToes  -4.65661e-009 0 -3.6325e-017
Spine  3.23959 1.31091 5.93973
Spine1  5.46579 3.33055 -7.89886
HEad  -9.34838 -3.53937 -2.14991
LeftShoulder1  -0.570612 4.97752 -32.5761
LeftArm  -3.04427 17.6436 -38.474
LeftForeArm  32.0779 -11.4183 -7.49123
LeftHand  -0.0763639 11.4303 -0.14685
RightShoulder  -0.945437 -6.10817 29.7367
RightArm  22.5976 0.862333 46.9376
RightForeArm  8.08498 19.3579 4.96699
RightHand  -0.0716302 3.50829 -1.18984
LeftUpLeg  -18.2264 4.31131 -2.09587
LeftLeg  11.474 4.78047 0.855248
LeftFoot  6.03604 -0.258398 1.50702
LeftToes  9.86798e-010 -1.28139e-010 1.4132e-011
